<svg id="Button" xmlns="http://www.w3.org/2000/svg" width="36" height="36" viewBox="0 0 36 36">
  <defs>
    <style>
      .cls-1 {
        fill: #fff;
        stroke: #aa5cb2;
        stroke-width: 2px;
      }

      .cls-2 {
        fill: #aa5cb2;
      }

      .cls-3 {
        stroke: none;
      }

      .cls-4 {
        fill: none;
      }
    </style>
  </defs>
  <g id="Background" class="cls-1">
    <rect class="cls-3" width="36" height="36" rx="18"/>
    <rect class="cls-4" x="1" y="1" width="34" height="34" rx="17"/>
  </g>
  <path id="heart" class="cls-2" d="M14.851,24.6a1.01,1.01,0,0,1-.361-.066,10.405,10.405,0,0,1-3.6-2.878c-1.051-1.175-3.446-4.2-2.98-6.893a3.455,3.455,0,0,1,1.837-2.5c2.24-1.216,4.091.475,5.1,1.681,1.007-1.206,2.86-2.892,5.1-1.681a3.455,3.455,0,0,1,1.837,2.5c.466,2.695-1.929,5.717-2.98,6.893a10.405,10.405,0,0,1-3.6,2.878A1.01,1.01,0,0,1,14.851,24.6ZM11.309,13.916a1.208,1.208,0,0,0-.585.157,1.419,1.419,0,0,0-.806,1.044c-.213,1.22.766,3.254,2.489,5.182a11.3,11.3,0,0,0,2.445,2.135A11.161,11.161,0,0,0,17.29,20.3c1.723-1.927,2.7-3.962,2.494-5.182a1.419,1.419,0,0,0-.8-1.053h0c-.851-.463-1.766.087-3.062,1.836a4.549,4.549,0,0,1-.328.417,1.021,1.021,0,0,1-1.483,0,4.549,4.549,0,0,1-.328-.417C12.777,14.542,12,13.916,11.309,13.916Z" transform="translate(3.149 0.151)"/>
</svg>
